<?xml version="1.0" encoding="UTF-8" standalone="no"?>
<!DOCTYPE svg PUBLIC "-//W3C//DTD SVG 1.1//EN" "http://www.w3.org/Graphics/SVG/1.1/DTD/svg11.dtd">
<!-- Generated by Microsoft Visio, SVG Export ipv4-space-is-a-finite-resource.svg Page-2 -->
<svg xmlns="http://www.w3.org/2000/svg" xmlns:xlink="http://www.w3.org/1999/xlink" xmlns:ev="http://www.w3.org/2001/xml-events"
		xmlns:v="http://schemas.microsoft.com/visio/2003/SVGExtensions/" width="9.25197in" height="4.52756in"
		viewBox="0 0 666.142 325.984" xml:space="preserve" color-interpolation-filters="sRGB" class="st14">
	<v:documentProperties v:langID="1033" v:metric="true" v:viewMarkup="false">
		<v:userDefs>
			<v:ud v:nameU="msvNoAutoConnect" v:val="VT0(1):26"/>
		</v:userDefs>
	</v:documentProperties>

	<style type="text/css">
	<![CDATA[
		.st1 {fill:#126d99;stroke:#126d99;stroke-linecap:round;stroke-linejoin:round;stroke-width:0.5}
		.st2 {fill:#ffffff;font-family:Verdana;font-size:1.5em;font-weight:bold}
		.st3 {font-size:1em;font-weight:normal}
		.st4 {fill:none;stroke:none;stroke-linecap:round;stroke-linejoin:round;stroke-width:0.75}
		.st5 {fill:#126d99;font-family:Verdana;font-size:1.5em;font-weight:bold}
		.st6 {fill:#000000;font-size:0.777771em;font-weight:normal}
		.st7 {fill:#00b050;font-family:Verdana;font-size:1.5em;font-weight:bold}
		.st8 {fill:#c4d6a0;stroke:none;stroke-linecap:butt;stroke-width:0.75}
		.st9 {fill:#00b050;stroke:none;stroke-linecap:round;stroke-linejoin:round;stroke-width:0.5}
		.st10 {fill:#ffffff}
		.st11 {stroke:#126d99;stroke-linecap:round;stroke-linejoin:round;stroke-width:1}
		.st12 {fill:#000000;font-family:Verdana;font-size:0.916672em;font-weight:bold}
		.st13 {stroke:#7f7f7f;stroke-linecap:butt;stroke-width:1.75}
		.st14 {fill:none;fill-rule:evenodd;font-size:12px;overflow:visible;stroke-linecap:square;stroke-miterlimit:3}
	]]>
	</style>

	<g v:mID="5" v:index="2" v:groupContext="foregroundPage">
		<title>Page-2</title>
		<v:pageProperties v:drawingScale="0.0393701" v:pageScale="0.0393701" v:drawingUnits="24" v:shadowOffsetX="9"
				v:shadowOffsetY="-9"/>
		<v:layer v:name="Annotations" v:index="0"/>
		<g id="shape26-1" v:mID="26" v:groupContext="shape" transform="translate(346.916,-272.892)">
			<title>Rectangle.27</title>
			<desc>All IPv4 addresses 0.0.0.0 through 255.255.255.255</desc>
			<v:userDefs>
				<v:ud v:nameU="visVersion" v:val="VT0(15):26"/>
			</v:userDefs>
			<v:textBlock v:margins="rect(4,4,4,4)" v:tabSpace="42.5197"/>
			<v:textRect cx="158.787" cy="302.219" width="317.58" height="47.5316"/>
			<rect x="0" y="278.453" width="317.573" height="47.5316" rx="2.83465" ry="2.83465" class="st1"/>
			<text x="64.7" y="296.82" class="st2" v:langID="1033"><v:paragraph v:horizAlign="1"/><v:tabList/>All IPv4 addresses<v:newlineChar/><tspan
						x="5.72" dy="1.2em" class="st3">0.0.0.0 through 255.255.255.255</tspan></text>		</g>
		<g id="shape51-5" v:mID="51" v:groupContext="shape" transform="translate(338.36,4.31521)">
			<title>Sheet.51</title>
			<desc>IPv4 space is a finite resource. New addresses could never be...</desc>
			<v:textBlock v:margins="rect(4,4,4,8)" v:tabSpace="42.5197" v:verticalAlign="0"/>
			<v:textRect cx="163.065" cy="252.961" width="326.13" height="146.048"/>
			<rect x="0" y="179.937" width="326.129" height="146.048" class="st4"/>
			<text x="8" y="200.14" class="st5" v:langID="1033"><v:paragraph/><v:tabList/>IPv4 space is a finite resource.<tspan
						class="st6"> </tspan><tspan x="8" dy="1.286em" class="st6">New addresses could never be produced. </tspan><tspan
						x="8" dy="1.2em" class="st6">We need to utilize it wisely!<v:newlineChar/></tspan><tspan x="8" dy="1.2em"
						class="st6">-</tspan><tspan class="st6"> </tspan><tspan class="st6">IPv4 address space is divided into five IP </tspan><tspan
						x="8" dy="1.2em" class="st6">Classes (A, B, C, D, E).<v:newlineChar/></tspan><tspan x="8" dy="1.2em"
						class="st6">-</tspan><tspan class="st6"> </tspan><tspan class="st6">Each IP class is divided into subnets.<v:newlineChar/></tspan><tspan
						x="8" dy="1.2em" class="st6">-</tspan><tspan class="st6"> </tspan><tspan class="st6">Subnets are allocated to organizations by </tspan><tspan
						x="8" dy="1.2em" class="st6">IANA. </tspan> </text>		</g>
		<g id="shape55-22" v:mID="55" v:groupContext="shape" transform="translate(7.02337,4.31521)">
			<title>Sheet.55</title>
			<desc>Land is a finite resource. New land could never be produced. ...</desc>
			<v:textBlock v:margins="rect(4,4,4,8)" v:tabSpace="42.5197" v:verticalAlign="0"/>
			<v:textRect cx="158.787" cy="252.961" width="317.58" height="146.048"/>
			<rect x="0" y="179.937" width="317.573" height="146.048" class="st4"/>
			<text x="8" y="200.14" class="st7" v:langID="1033"><v:paragraph/><v:tabList/>Land is a finite resource.<v:newlineChar/><tspan
						x="8" dy="1.286em" class="st6">New land could never be produced. <v:newlineChar/></tspan><tspan x="8"
						dy="1.2em" class="st6">We need to utilize it wisely!<v:newlineChar/></tspan><tspan x="8" dy="1.2em"
						class="st6">-</tspan><tspan class="st6"> </tspan><tspan class="st6">Land is divided into 7 continents.<v:newlineChar/></tspan><tspan
						x="8" dy="1.2em" class="st6">-</tspan><tspan class="st6"> </tspan><tspan class="st6">Each continent is divided into countries.</tspan></text>		</g>
		<g id="group57-33" transform="translate(28.8305,-146.249)" v:mID="57" v:groupContext="group">
			<title>Sheet.57</title>
			<g id="shape58-34" v:mID="58" v:groupContext="shape" transform="translate(106.653,-99.6363)">
				<title>Sheet.58</title>
				<path d="M2.57 322.24 L2.72 323.33 L1.1 323.66 L0.87 325.98 L2.85 325.98 L5.46 325.74 L6.81 324.14 L5.36 323.58 L4.57
							 322.68 L3.38 320.79 L2.85 318.08 L0.62 318.53 L0 319.49 L0 320.54 L1.06 321.3 L2.57 322.24 Z"
						class="st8"/>
			</g>
			<g id="shape59-36" v:mID="59" v:groupContext="shape" transform="translate(103.005,-100.524)">
				<title>Sheet.59</title>
				<path d="M4.35 324.02 L4.45 322.56 L3.18 322.01 L1.35 322.42 L0 324.57 L0 325.98 L1.58 325.98 L4.35 324.02 Z"
						class="st8"/>
			</g>
			<g id="shape60-38" v:mID="60" v:groupContext="shape" transform="translate(67.6729,-93.7822)">
				<title>Sheet.60</title>
				<path d="M1.93 324.49 L0 324.49 L0 325.5 L0.46 325.5 C0.46 325.5 0.5 325.71 0.52 325.98 L1.72 325.88 L2.43 325.43
							 L2.65 324.5 L3.6 324.42 L3.98 323.63 L3.09 323.44 L2.34 323.46 L1.93 324.49 Z" class="st8"/>
			</g>
			<g id="shape61-40" v:mID="61" v:groupContext="shape" transform="translate(64.9406,-93.5127)">
				<title>Sheet.61</title>
				<path d="M0 325.98 L1.42 325.87 L1.54 324.89 L0.69 324.22 L0.08 325.02 L0 325.98 Z" class="st8"/>
			</g>
			<g id="shape62-42" v:mID="62" v:groupContext="shape" transform="translate(197.987,-44.5258)">
				<title>Sheet.62</title>
				<path d="M15.04 323.84 L10.91 323.97 L10.74 321.72 L11.41 322.01 L13.03 321.82 L12.87 319.76 L8.37 319.81 L7.16 318.19
							 L7.21 317.32 L1.44 312.13 L0 313.25 L8.28 323.35 L9.44 323.74 L9.44 324.28 L7.89 324.28 L8.28 325.54
							 L18.41 325.98 L15.04 323.84 Z" class="st8"/>
			</g>
			<g id="shape63-44" v:mID="63" v:groupContext="shape" transform="translate(210.906,-48.5868)">
				<title>Sheet.63</title>
				<path d="M9.34 316.64 L8.64 316.36 L8.31 314.62 L7.29 314.62 L6.64 316.36 L5.87 317.06 L0 320.25 L0 323.4 L1.95 325.98
							 L6.89 325.98 L7.53 324.38 L8.64 323.36 L8.64 322.62 L9.34 322.18 L9.34 316.64 Z" class="st8"/>
			</g>
			<g id="shape64-46" v:mID="64" v:groupContext="shape" transform="translate(220.243,-46.4848)">
				<title>Sheet.64</title>
				<path d="M3.65 320.08 L0.68 321.22 L0.75 321.88 L0 321.88 L0 325.98 L1.5 325.98 L1.29 323.37 L2.46 323.8 L2.46 325.63
							 L3.69 325.55 L3.65 320.08 Z" class="st8"/>
			</g>
			<g id="shape65-48" v:mID="65" v:groupContext="shape" transform="translate(211.742,-15.5951)">
				<title>Sheet.65</title>
				<path d="M37.14 314.03 L36.32 310.71 L33.3 308.13 L33.06 303.19 L31.08 299.78 L29.29 299.68 L28.55 305.88 L25.15
							 305.63 L24.16 305.04 L24.06 302.6 L25.85 302.97 L27.39 301.48 L24.13 299.51 L20.31 299.51 L17.56 303.43
							 L16.45 303.43 L16.45 302.19 L13.13 302.42 L7.93 308.35 L5.16 308.42 L2.07 310.52 L1.88 319.74 L0 321.53
							 L0 323.15 L8.99 320.07 L16.25 319.78 L18.94 325.7 L27.2 325.98 L35.16 318.5 L37.14 314.03 Z"
						class="st8"/>
			</g>
			<g id="shape66-50" v:mID="66" v:groupContext="shape" transform="translate(231.773,-11.0055)">
				<title>Sheet.66</title>
				<path d="M0 325.68 L2.92 325.98 L5.27 324.69 L5.33 322.91 L2.74 322.63 L0 325.68 Z" class="st8"/>
			</g>
			<g id="shape67-52" v:mID="67" v:groupContext="shape" transform="translate(243.672,-9.28701)">
				<title>Sheet.67</title>
				<path d="M16.2 315.87 L14.98 316.11 L14.95 313.37 L12.71 313.51 L12.41 317.8 L10.45 319.14 L6.81 319.63 L0.98 323.79
							 L0 324.6 L0 325.98 L3.03 325.53 L10.45 320.99 L12.53 319.61 L14.76 318.62 L17.03 317.35 L16.2 315.87
							 Z" class="st8"/>
			</g>
			<g id="shape68-54" v:mID="68" v:groupContext="shape" transform="translate(230.855,-42.627)">
				<title>Sheet.68</title>
				<path d="M6.07 318.58 L4.19 318.64 L4.34 316.67 L2.54 315.61 L0 318.17 L1.71 320.27 L5.41 320.81 L7.48 321.89 L7.54
							 322.9 L6.18 322.9 L6.25 324.98 L10.72 324.69 L12.35 322.95 L14.12 322.79 L14.12 325.98 L17.14 325.98
							 L17.14 324.69 L15.6 324.69 L15.34 320.81 L8.09 317.52 L6.07 318.58 Z" class="st8"/>
			</g>
			<g id="shape69-56" v:mID="69" v:groupContext="shape" transform="translate(183.091,-57.4323)">
				<title>Sheet.69</title>
				<path d="M0 324.08 L0.71 325.98 L3.26 325.03 L3.52 322.4 L1.48 322.01 L0 324.08 Z" class="st8"/>
			</g>
			<g id="shape70-58" v:mID="70" v:groupContext="shape" transform="translate(148.542,-25.5144)">
				<title>Sheet.70</title>
				<path d="M4.59 314.38 L1.11 313.92 L1.11 316.62 L2.36 318.07 L1.41 319.53 L0 321.15 L0 324.13 L1.93 325.98 L3.66
							 323.19 L7.07 318.19 L8.7 310.33 L6.63 310.33 L4.59 314.38 Z" class="st8"/>
			</g>
			<g id="shape71-60" v:mID="71" v:groupContext="shape" transform="translate(223.483,-44.5258)">
				<title>Sheet.71</title>
				<path d="M1.15 325.1 L0 325.1 L0 325.71 L0.89 325.98 L1.15 325.1 Z" class="st8"/>
			</g>
			<g id="shape72-62" v:mID="72" v:groupContext="shape" transform="translate(218.195,-43.7837)">
				<title>Sheet.72</title>
				<rect x="0" y="325.242" width="1.36196" height="0.742131" class="st8"/>
			</g>
			<g id="shape73-64" v:mID="73" v:groupContext="shape" transform="translate(220.243,-43.1348)">
				<title>Sheet.73</title>
				<path d="M1.24 325.34 L2.08 325.34 L2.08 324.68 L2.7 324.59 L2.7 323.95 L1.35 323.95 L0.8 324.59 L0 325.34 L0 325.98
							 L1.24 325.87 L1.24 325.34 Z" class="st8"/>
			</g>
			<g id="shape74-66" v:mID="74" v:groupContext="shape" transform="translate(223.628,-42.6083)">
				<title>Sheet.74</title>
				<path d="M1.31 325.41 L2.66 325.41 L2.66 324.71 L3.59 324.81 L3.47 323.62 L1.94 323.86 L1.79 324.63 L0.08 324.81
							 L0 324.81 L0 325.98 L1.31 325.98 L1.31 325.41 Z" class="st8"/>
			</g>
			<g id="shape75-68" v:mID="75" v:groupContext="shape" transform="translate(94.0641,-19.9919)">
				<title>Sheet.75</title>
				<path d="M106.4 286.11 L114.39 293.78 L114.81 292.42 L108.31 283.18 L109 280.48 L112.42 284.37 L114.33 284.56 L116.84
							 282.89 L116.43 280.37 L112.26 277.04 L112.1 274.01 L113.28 272.42 L115.37 273.08 L115.21 274.51 L116.41
							 276.35 L117.47 275.59 L116.88 273.41 L122.77 271.3 L125.35 269.14 L124.95 265.25 L119.83 259.86 L119.74
							 255.48 L122.01 255.48 L129.08 260.86 L131.08 260.34 L129.74 258.61 L125.96 256.3 L126.2 252.87 L130.68
							 252.88 L131.05 248.64 L129.33 246.4 L130.35 245.3 L132.53 247.5 L133.24 246.57 L130.41 243.37 L123.48
							 242.54 L122.55 240.68 L124.56 237.82 L126.15 239.01 L130.95 239.42 L136.99 235.39 L138 236.64 L136.65
							 238.76 L136.65 240.84 L142.21 245.39 L143.97 244.47 L143.32 241.44 L139.36 237.74 L144.57 237.39 L144.57
							 235.89 L147.08 235.38 L145.16 234.04 L145.23 233.02 L150.55 233.87 L151.56 233.02 L144.39 230 L118.33
							 228.66 L115.91 227.43 L112.02 226.83 L109.13 226.74 L106.48 229.41 L105.37 229.33 L101.86 226.72 L91.51
							 226.72 L86.72 223.85 L77.11 224.45 L69.82 227.74 L69.87 231.51 L67.61 232.19 L67.11 228.4 L66.26 227.09
							 L63.75 226.47 L63.17 228.74 L63.9 230.6 L54.93 230 L50.66 231.98 L50.01 230.11 L48.93 230.39 L48.15
							 232.46 L45.91 234.22 L40.44 234.07 L40.19 232.86 L45.92 232.61 L47.09 231.61 L40.19 228.4 L31.79 228.66
							 L27.08 231.06 L25.31 234.22 L22.17 235.44 L20.86 236.87 L21.17 238.53 L22.78 238.75 L23.76 241.18 L26.5
							 240.06 L26.99 243.3 L26.12 243.3 L23.87 242.96 L21.35 243.38 L18.92 246.82 L15.41 247.38 L14.92 250.37
							 L16.4 250.71 L15.98 252.64 L12.49 251.95 L9.31 252.64 L8.65 254.41 L9.19 258.12 L11.07 259 L14.19 258.99
							 L16.31 258.79 L16.96 257.1 L20.26 252.82 L22.44 253.27 L24.57 251.33 L24.97 252.84 L30.23 256.4 L29.58
							 257.26 L27.21 257.13 L28.11 258.42 L29.58 258.74 L31.29 258.03 L31.26 255.97 L32.04 255.58 L31.41 254.93
							 L27.89 252.98 L26.98 250.36 L29.89 250.36 L30.82 251.28 L33.35 253.46 L33.44 256.09 L36.05 258.86 L37.02
							 255.06 L38.83 254.06 L39.17 257.18 L40.93 259.12 L46.25 259.04 L47.83 260.21 L47.83 263 L45.89 264.76
							 L40.49 264.76 L37.22 262.31 L33.77 262.66 L33.77 264.76 L32.67 264.76 L31.49 263.91 L25.52 262.39 L25.52
							 258.53 L17.94 259.12 L15.58 260.38 L12.6 260.38 L11.11 260.23 L7.46 262.26 L7.46 266.07 L0 271.46 L0.63
							 273.75 L2.13 273.75 L1.75 275.94 L0.69 276.34 L0.63 282.06 L7.06 289.4 L9.87 289.4 L10.06 288.95 L15.09
							 288.95 L16.56 287.61 L19.41 287.61 L20.99 289.19 L25.25 289.62 L24.69 295.3 L29.42 303.66 L26.93 308.43
							 L27.1 310.66 L29.08 312.62 L29.08 318.03 L31.65 321.49 L31.65 325.98 L39.28 325.98 L45.01 320.11 L46.81
							 316.9 L49.11 316.4 L49.11 313.72 L50.62 311.92 L53.8 307.53 L53.14 300.87 L51.74 298.4 L58.03 292.38
							 L64.95 282.47 L63.63 281.84 L56.42 283.36 L54.55 282.44 L46.99 268.17 L47.51 267.55 L55.03 276.66 L55.21
							 279.48 L56.93 281.22 L60.49 280.99 L67.84 275.65 L70.17 274.15 L70.14 272.29 L67.67 271.98 C67.67 271.98
							 59.02 267.9 59.02 267.72 C59.02 267.54 59.07 264.23 59.07 264.23 L60.99 264.23 L61.27 266.64 L65.27
							 268.95 L69.86 269.17 L79.77 270.79 L82.1 272.26 L82.1 274.53 L81.8 277.63 L86.91 285.99 L88.53 286.37
							 L90.18 283.99 L91.07 277.22 L92.77 273.57 L95.5 272.55 L100.32 273.01 L106.39 278.4 L106.39 286.11 L106.4
							 286.11 L106.4 286.11 ZM36.6 232.86 L33.28 234.91 L33.28 236.24 L35.16 237.12 L35.3 238.94 L32.62 242.91
							 L27.98 242.86 L27.69 241.91 L30.59 240.43 L30.62 234.94 L35.53 231.5 L36.6 231.5 L36.6 232.86 L36.6
							 232.86 ZM46.9 256.25 L46.9 256.24 L42.53 256.05 L41.23 256.24 L41.23 253.27 L42.21 252.16 L43.26 251.83
							 L45.59 251.57 L46.09 250.77 L47.04 251.24 L47.17 253.96 L49.72 255.01 L49.93 256.26 L46.9 256.25 ZM63.67
							 258.38 L63.66 258.38 L62.89 259.1 L61.12 258.97 L60.79 258.44 L58.01 258.23 L58.21 257.34 L59.69 256.08
							 L59.69 255.01 L56.87 252.97 L56.74 250.35 L57.32 249.07 L59.6 248.86 L61.53 249.67 L61.62 251.02 L58.86
							 250.87 L58.73 252.12 L62.17 254.4 L62.17 256.09 L63.67 257.18 L63.67 258.38 Z" class="st8"/>
			</g>
			<g id="shape76-70" v:mID="76" v:groupContext="shape">
				<title>Sheet.76</title>
				<path d="M83.38 275.74 L77.44 275.69 L72.72 273.89 L72.5 270.53 L70.92 267.78 L66.68 267.73 L64.21 263.85 L62.02
							 262.8 L61.91 263.95 L57.93 264.2 L56.47 262.17 L52.3 261.33 L48.88 265.27 L43.51 264.37 L43.12 258.29
							 L39.18 257.62 L40.76 254.65 L40.3 252.94 L35.16 256.4 L31.91 256.01 L30.73 253.46 L31.46 250.83 L33.25
							 247.54 L37.36 245.45 L45.33 245.45 L45.31 247.87 L48.18 249.19 L47.94 245.04 L50.01 242.98 L54.17 240.24
							 L54.44 238.32 L58.61 234 L63.03 231.56 L62.63 231.25 L65.61 228.43 L66.72 228.71 L67.22 229.35 L68.35
							 228.08 L68.61 227.95 L67.39 227.78 L66.13 227.36 L66.13 226.13 L66.79 225.59 L68.27 225.59 L68.95 225.88
							 L69.53 227.05 L70.24 226.95 L70.24 226.88 L70.46 226.94 L72.52 226.61 L72.81 225.6 L73.96 225.89 L73.96
							 226.98 L72.88 227.75 L73.04 228.96 L76.8 230.11 C76.8 230.11 76.81 230.13 76.81 230.15 L77.66 230.08
							 L77.73 228.46 L74.76 227.11 L74.58 226.32 L77.05 225.47 L77.15 223.13 L74.58 221.55 L74.41 217.59 L70.86
							 219.32 L69.57 219.32 L69.91 216.29 L65.13 215.15 L63.13 216.65 L63.13 221.25 L59.55 222.37 L58.1 225.37
							 L56.56 225.61 L56.56 221.79 L53.2 221.31 L51.52 220.23 L50.83 217.76 L56.85 214.23 L59.79 213.33 L60.08
							 215.31 L61.73 215.23 L61.86 214.23 L63.57 213.99 L63.59 213.65 L62.87 213.33 L62.7 212.29 L64.8 212.11
							 L66.07 210.78 L66.16 210.68 L66.16 210.69 L66.54 210.29 L71 209.73 L72.94 211.4 L67.79 214.14 L74.34
							 215.68 L75.17 213.48 L78.05 213.48 L79.05 211.58 L77.04 211.07 L77.04 208.67 L70.7 205.86 L66.34 206.36
							 L63.85 207.65 L64.04 210.8 L61.47 210.4 L61.07 208.67 L63.52 206.42 L59.06 206.2 L57.75 206.57 L57.19
							 208.09 L58.88 208.38 L58.54 210.07 L55.68 210.24 L55.24 211.35 L51.06 211.47 C51.06 211.47 50.97 209.11
							 50.8 209.11 C50.63 209.11 54.05 209.06 54.05 209.06 L56.53 206.64 L55.18 205.96 L53.38 207.71 L50.4
							 207.55 L48.62 205.07 L44.8 205.07 L40.82 208.05 L44.47 208.05 L44.8 209.12 L43.85 210.02 L47.89 210.14
							 L48.51 211.59 L43.96 211.41 L43.73 210.29 L40.88 209.67 L39.36 208.84 L32.63 208.9 L30.56 210.91 L29.15
							 210.79 L27.58 209.89 L22.93 208.49 L14.4 208.49 L9.47 211.85 L6.16 212.36 L4.65 213.54 L7 213.89 L7
							 214.83 L1.97 214.83 L0 216.23 L2.51 218.37 L9.41 218.43 L10.37 217.4 L16.13 217.4 L18.21 219.25 L18.09
							 222.12 L19.84 223.75 L18.38 224.79 L18.71 228.57 L13.51 234.91 L13.51 240.85 L16.3 242.2 L16.3 247.54
							 L19.01 252.12 L21.18 252.45 L21.46 250.88 L18.9 246.91 L18.39 243.05 L19.91 243.05 L20.56 247.03 L24.29
							 252.46 L23.29 254.22 L25.68 257.85 L31.58 259.31 L31.58 258.36 L33.93 258.68 L33.71 260.37 L35.56 260.69
							 L38.42 261.5 L42.47 266.09 L47.62 266.48 L48.13 270.69 L44.59 273.16 L44.42 276.9 L43.92 279.21 L49.02
							 285.6 L49.42 287.77 C49.42 287.77 51.27 288.28 51.48 288.28 C51.7 288.28 55.64 291.26 55.64 291.26 L55.64
							 302.8 L57.04 303.21 L56.07 308.53 L58.43 311.66 L58 316.94 L61.11 322.42 L65.11 325.91 L69.11 325.98
							 L69.51 324.71 L66.57 322.22 L66.75 320.98 L67.29 319.46 L67.4 317.93 L65.39 317.87 L64.36 316.61 L66.04
							 315.01 L66.26 313.81 L64.41 313.29 L64.51 312.16 L67.15 311.77 L71.16 309.85 L72.51 307.38 L76.71 301.98
							 L75.76 297.78 L77.05 295.53 L80.91 295.65 L83.51 293.61 L84.35 285.47 L87.24 281.79 L87.76 279.44 L85.12
							 278.6 L83.38 275.74 ZM51.92 235.24 L49.77 235.24 L50.12 233.78 L51.13 233.67 L51.35 233.18 L52.89 232.96
							 L52.89 234.28 L52.9 234.28 L51.92 235.24 ZM53.4 231.63 L52.39 232.28 L51.12 232.5 C51.12 232.5 51.12
							 230.5 51.12 230.28 L53.4 230.28 L53.4 231.63 ZM55.32 230.08 L56.36 230.71 L55.53 231.4 L54.73 230.71
							 L55.32 230.08 ZM53.96 231.75 L54.13 231.75 L56.7 232.5 L56.7 233.82 L54.54 233.82 L53.96 232.98 L53.96
							 231.75 ZM52.28 228.13 L53.67 229.4 L52.28 229.74 L52.28 228.13 ZM46.38 228.34 L48.32 227.54 L50.98 227.54
							 L50.98 228.34 L51.56 228.34 L51.56 229.74 L47.51 229.74 L46.01 229.33 L46.38 228.34 ZM46.01 231.97 L47.55
							 230.29 L49.77 230.29 L46.92 234.28 L45.73 233.64 L46.01 231.97 ZM43.95 222.47 L45.54 222.83 L44.99 224.99
							 L43.27 225.54 L42.18 223.3 L43.95 222.47 ZM35.96 212.29 L35.96 212.16 L37.43 212.16 L37.57 211.65 L39.98
							 211.65 L39.98 212.71 L39.27 213.62 L35.96 213.62 L35.96 212.29 ZM38.3 215.57 C38.3 215.57 39.78 215.31
							 39.9 215.31 C40.01 215.31 39.9 216.79 39.9 216.79 L36.58 217 L35.95 216.24 L38.3 215.57 Z" class="st8"/>
			</g>
		</g>
		<g id="shape77-72" v:mID="77" v:groupContext="shape" transform="translate(2.42061,-272.892)">
			<title>Rectangle.52</title>
			<desc>All land there is on Earth 29% of planet Earth</desc>
			<v:userDefs>
				<v:ud v:nameU="visVersion" v:val="VT0(15):26"/>
			</v:userDefs>
			<v:textBlock v:margins="rect(4,4,4,4)" v:tabSpace="42.5197"/>
			<v:textRect cx="158.787" cy="302.219" width="317.58" height="47.5316"/>
			<rect x="0" y="278.453" width="317.573" height="47.5316" rx="2.83465" ry="2.83465" class="st9"/>
			<text x="33.38" y="296.82" class="st2" v:langID="1033"><v:paragraph v:horizAlign="1"/><v:tabList/>All land there is on Earth<v:newlineChar/><v:paragraph
						v:horizAlign="1"/><tspan x="67.27" dy="1.2em" class="st3">29% of planet Earth</tspan></text>		</g>
		<g id="shape100-76" v:mID="100" v:groupContext="shape" v:layerMember="0" transform="translate(346.916,-166.11)">
			<title>15 ruled column</title>
			<desc>Class A B C D E</desc>
			<v:userDefs>
				<v:ud v:nameU="AntiScale" v:val="VT0(1):26"/>
				<v:ud v:nameU="visVersion" v:val="VT0(15):26"/>
			</v:userDefs>
			<v:textBlock v:margins="rect(0,4,4,4)" v:tabSpace="42.5197" v:verticalAlign="0"/>
			<v:textRect cx="27.7929" cy="282.982" width="55.59" height="85.0394"/>
			<path d="M0 325.5 L55.59 325.5 L55.59 240.46 L0 240.46 L0 325.5 Z" class="st10"/>
			<path d="M0 325.5 L55.59 325.5 L55.59 240.46 L0 240.46 L0 325.5" class="st11"/>
			<path d="M0 254.64 L55.59 254.64" class="st11"/>
			<path d="M0 268.81 L55.59 268.81" class="st11"/>
			<path d="M0 282.98 L55.59 282.98" class="st11"/>
			<path d="M0 297.16 L55.59 297.16" class="st11"/>
			<path d="M0 311.33 L55.59 311.33" class="st11"/>
			<path d="M0 325.5 L55.59 325.5" class="st11"/>
			<path d="M0 325.5 L55.59 325.5" class="st11"/>
			<path d="M0 325.5 L55.59 325.5" class="st11"/>
			<path d="M0 325.5 L55.59 325.5" class="st11"/>
			<path d="M0 325.5 L55.59 325.5" class="st11"/>
			<path d="M0 325.5 L55.59 325.5" class="st11"/>
			<path d="M0 325.5 L55.59 325.5" class="st11"/>
			<path d="M0 325.5 L55.59 325.5" class="st11"/>
			<path d="M0 325.5 L55.59 325.5" class="st11"/>
			<text x="4" y="251.09" class="st12" v:langID="1033"><v:paragraph v:spLine="0.19685"/><v:tabList/>Class<v:newlineChar/><tspan
						x="4" dy="1.288em" class="st3">A<v:lf/></tspan><tspan x="4" dy="1.288em" class="st3">B<v:newlineChar/></tspan><tspan
						x="4" dy="1.288em" class="st3">C<v:newlineChar/></tspan><tspan x="4" dy="1.288em" class="st3">D<v:newlineChar/></tspan><tspan
						x="4" dy="1.288em" class="st3">E</tspan></text>		</g>
		<g id="shape101-99" v:mID="101" v:groupContext="shape" v:layerMember="0" transform="translate(402.502,-166.11)">
			<title>15 ruled column.101</title>
			<desc>Starting IP Address 0.0.0.0 128.0.0.0 192.0.0.0 224.0.0.0 240...</desc>
			<v:userDefs>
				<v:ud v:nameU="AntiScale" v:val="VT0(1):26"/>
				<v:ud v:nameU="visVersion" v:val="VT0(15):26"/>
			</v:userDefs>
			<v:textBlock v:margins="rect(0,4,4,4)" v:tabSpace="42.5197" v:verticalAlign="0"/>
			<v:textRect cx="65.9291" cy="282.982" width="131.86" height="85.0394"/>
			<path d="M0 325.5 L131.86 325.5 L131.86 240.46 L0 240.46 L0 325.5 Z" class="st10"/>
			<path d="M0 325.5 L131.86 325.5 L131.86 240.46 L0 240.46 L0 325.5" class="st11"/>
			<path d="M0 254.64 L131.86 254.64" class="st11"/>
			<path d="M0 268.81 L131.86 268.81" class="st11"/>
			<path d="M0 282.98 L131.86 282.98" class="st11"/>
			<path d="M0 297.16 L131.86 297.16" class="st11"/>
			<path d="M0 311.33 L131.86 311.33" class="st11"/>
			<path d="M0 325.5 L131.86 325.5" class="st11"/>
			<path d="M0 325.5 L131.86 325.5" class="st11"/>
			<path d="M0 325.5 L131.86 325.5" class="st11"/>
			<path d="M0 325.5 L131.86 325.5" class="st11"/>
			<path d="M0 325.5 L131.86 325.5" class="st11"/>
			<path d="M0 325.5 L131.86 325.5" class="st11"/>
			<path d="M0 325.5 L131.86 325.5" class="st11"/>
			<path d="M0 325.5 L131.86 325.5" class="st11"/>
			<path d="M0 325.5 L131.86 325.5" class="st11"/>
			<text x="4" y="251.09" class="st12" v:langID="1033"><v:paragraph v:spLine="0.19685"/><v:tabList/>Starting IP Address<v:newlineChar/><tspan
						x="4" dy="1.288em" class="st3">0.0.0.0<v:newlineChar/></tspan><tspan x="4" dy="1.288em" class="st3">128.0.0.0<v:newlineChar/></tspan><tspan
						x="4" dy="1.288em" class="st3">192.0.0.0<v:newlineChar/></tspan><tspan x="4" dy="1.288em" class="st3">224.0.0.0<v:newlineChar/></tspan><tspan
						x="4" dy="1.288em" class="st3">240.0.0.0</tspan></text>		</g>
		<g id="shape102-122" v:mID="102" v:groupContext="shape" v:layerMember="0" transform="translate(534.36,-166.11)">
			<title>15 ruled column.102</title>
			<desc>Last IP Address 127.255.255.255 191.255.255.255 223.255.255.2...</desc>
			<v:userDefs>
				<v:ud v:nameU="AntiScale" v:val="VT0(1):26"/>
				<v:ud v:nameU="visVersion" v:val="VT0(15):26"/>
			</v:userDefs>
			<v:textBlock v:margins="rect(0,4,4,4)" v:tabSpace="42.5197" v:verticalAlign="0"/>
			<v:textRect cx="65.0645" cy="282.982" width="130.13" height="85.0394"/>
			<path d="M0 325.5 L130.13 325.5 L130.13 240.46 L0 240.46 L0 325.5 Z" class="st10"/>
			<path d="M0 325.5 L130.13 325.5 L130.13 240.46 L0 240.46 L0 325.5" class="st11"/>
			<path d="M0 254.64 L130.13 254.64" class="st11"/>
			<path d="M0 268.81 L130.13 268.81" class="st11"/>
			<path d="M0 282.98 L130.13 282.98" class="st11"/>
			<path d="M0 297.16 L130.13 297.16" class="st11"/>
			<path d="M0 311.33 L130.13 311.33" class="st11"/>
			<path d="M0 325.5 L130.13 325.5" class="st11"/>
			<path d="M0 325.5 L130.13 325.5" class="st11"/>
			<path d="M0 325.5 L130.13 325.5" class="st11"/>
			<path d="M0 325.5 L130.13 325.5" class="st11"/>
			<path d="M0 325.5 L130.13 325.5" class="st11"/>
			<path d="M0 325.5 L130.13 325.5" class="st11"/>
			<path d="M0 325.5 L130.13 325.5" class="st11"/>
			<path d="M0 325.5 L130.13 325.5" class="st11"/>
			<path d="M0 325.5 L130.13 325.5" class="st11"/>
			<text x="4" y="251.09" class="st12" v:langID="1033"><v:paragraph v:spLine="0.19685"/><v:tabList/>Last IP Address<v:newlineChar/><tspan
						x="4" dy="1.288em" class="st3">127.255.255.255<v:newlineChar/></tspan><tspan x="4" dy="1.288em" class="st3">191.255.255.255<v:newlineChar/></tspan><tspan
						x="4" dy="1.288em" class="st3">223.255.255.255<v:newlineChar/></tspan><tspan x="4" dy="1.288em" class="st3">239.255.255.255<v:newlineChar/></tspan><tspan
						x="4" dy="1.288em" class="st3">255.255.255.255</tspan><v:newlineChar/></text>		</g>
		<g id="shape103-145" v:mID="103" v:groupContext="shape" transform="translate(657.19,6.71365) rotate(90)">
			<title>Sheet.103</title>
			<path d="M0 325.98 L305.1 325.98" class="st13"/>
		</g>
	</g>
</svg>
